<?xml version="1.0" encoding="UTF-8"?>
<svg id="Layer_1" data-name="Layer 1" xmlns="http://www.w3.org/2000/svg" viewBox="0 0 1080 1080">
  <defs>
    <style>
      .cls-1 {
        fill: #e35196;
      }
    </style>
  </defs>
  <g>
    <polygon class="cls-1" points="251.57 605.13 241.41 578.04 602.11 442.78 621.65 456.32 621.65 528.64 679.51 528.64 679.51 456.32 693.98 441.85 809.7 441.85 809.7 355.07 838.62 355.07 838.62 456.32 824.16 470.78 724.24 470.78 708.44 470.78 708.44 543.11 693.98 557.57 607.19 557.57 592.73 543.11 592.73 477.19 251.57 605.13"/>
    <rect class="cls-1" x="629.15" y="592.04" width="42.86" height="42.86" transform="translate(1301.17 1226.93) rotate(180)"/>
    <rect class="cls-1" x="438.79" y="401.67" width="42.86" height="42.86" transform="translate(920.44 846.21) rotate(180)"/>
    <rect class="cls-1" x="395.93" y="401.67" width="42.86" height="42.86" transform="translate(834.72 846.21) rotate(180)"/>
    <rect class="cls-1" x="417.36" y="358.82" width="42.86" height="42.86" transform="translate(877.58 760.49) rotate(180)"/>
    <rect class="cls-1" x="732.37" y="358.82" width="42.86" height="42.86" transform="translate(1507.6 760.49) rotate(180)"/>
  </g>
  <g>
    <path class="cls-1" d="M241.34,723.94v-49.78h17.85l9.88,43.38h1.28v-43.38h9.24v49.78h-17.85l-9.88-43.38h-1.28v43.38h-9.24Z"/>
    <path class="cls-1" d="M285.57,723.94l13.09-49.78h16.36l13.08,49.78h-9.67l-2.7-10.95h-17.78l-2.7,10.95h-9.67ZM300.15,704.31h13.37l-6.04-24.25h-1.28l-6.04,24.25Z"/>
    <path class="cls-1" d="M332.65,723.94v-8.25h6.54v-33.28h-6.54v-8.25h25.6c3.03,0,5.67.51,7.93,1.53,2.25,1.02,4,2.46,5.26,4.34,1.26,1.87,1.88,4.11,1.88,6.72v.71c0,2.28-.43,4.14-1.28,5.58-.85,1.44-1.86,2.56-3.02,3.34-1.17.78-2.26,1.34-3.31,1.67v1.28c1.04.28,2.18.82,3.41,1.6,1.23.78,2.29,1.91,3.17,3.38.88,1.47,1.32,3.39,1.32,5.76v.71c0,2.75-.64,5.11-1.92,7.08-1.28,1.97-3.05,3.47-5.3,4.51-2.25,1.04-4.87,1.56-7.86,1.56h-25.88ZM348.58,694.64h8.67c1.94,0,3.54-.5,4.8-1.49,1.25-1,1.89-2.37,1.89-4.12v-.71c0-1.8-.62-3.19-1.85-4.16-1.23-.97-2.85-1.46-4.84-1.46h-8.67v11.95ZM348.58,715.41h8.82c2.04,0,3.69-.5,4.94-1.49,1.26-1,1.88-2.42,1.88-4.27v-.71c0-1.85-.62-3.27-1.85-4.27-1.23-1-2.89-1.49-4.98-1.49h-8.82v12.23Z"/>
    <path class="cls-1" d="M398.57,724.93c-3.84,0-7.23-.69-10.17-2.06-2.94-1.37-5.24-3.34-6.9-5.9-1.66-2.56-2.49-5.64-2.49-9.24v-1.99h9.24v1.99c0,2.99.92,5.22,2.77,6.72,1.85,1.49,4.36,2.24,7.54,2.24s5.63-.64,7.22-1.92c1.59-1.28,2.38-2.92,2.38-4.91,0-1.37-.39-2.49-1.17-3.34-.78-.85-1.92-1.55-3.41-2.1-1.49-.55-3.31-1.06-5.44-1.53l-1.64-.36c-3.41-.76-6.34-1.72-8.78-2.88-2.44-1.16-4.31-2.69-5.62-4.59-1.3-1.89-1.95-4.36-1.95-7.4s.72-5.63,2.17-7.78c1.44-2.16,3.48-3.82,6.12-4.98,2.63-1.16,5.72-1.74,9.28-1.74s6.72.61,9.49,1.81c2.77,1.21,4.95,3.01,6.54,5.4,1.59,2.4,2.38,5.39,2.38,9v2.13h-9.25v-2.13c0-1.9-.37-3.42-1.1-4.59-.73-1.16-1.79-2.01-3.16-2.56-1.38-.54-3.01-.82-4.91-.82-2.84,0-4.94.53-6.29,1.6-1.35,1.07-2.03,2.53-2.03,4.38,0,1.23.32,2.28.96,3.13.64.85,1.6,1.56,2.88,2.13,1.28.57,2.92,1.07,4.91,1.49l1.64.36c3.56.76,6.65,1.73,9.28,2.92,2.63,1.18,4.68,2.75,6.15,4.69,1.47,1.95,2.2,4.43,2.2,7.47s-.77,5.7-2.31,8c-1.54,2.3-3.72,4.1-6.54,5.4-2.82,1.3-6.15,1.95-9.99,1.95Z"/>
    <path class="cls-1" d="M424.38,723.94v-49.78h9.39v20.55h18.49v-20.55h9.39v49.78h-9.39v-20.69h-18.49v20.69h-9.39Z"/>
    <path class="cls-1" d="M498.47,723.94v-41.24h-14.51v-8.53h38.4v8.53h-14.51v41.24h-9.39Z"/>
    <path class="cls-1" d="M520.8,723.94l13.08-49.78h16.35l13.09,49.78h-9.67l-2.7-10.95h-17.78l-2.7,10.95h-9.67ZM535.38,704.31h13.37l-6.04-24.25h-1.28l-6.04,24.25Z"/>
    <path class="cls-1" d="M569.3,723.94v-49.78h9.39v19.77h1.28l16.14-19.77h12.02l-20.76,24.53,21.47,25.24h-12.37l-16.49-20.2h-1.28v20.2h-9.39Z"/>
    <path class="cls-1" d="M613.81,723.94v-49.78h32v8.53h-22.61v11.88h20.62v8.53h-20.62v12.3h23.04v8.53h-32.42Z"/>
    <path class="cls-1" d="M649.79,723.94l13.08-49.78h16.35l13.09,49.78h-9.67l-2.7-10.95h-17.78l-2.7,10.95h-9.67ZM664.37,704.31h13.37l-6.04-24.25h-1.28l-6.04,24.25Z"/>
    <path class="cls-1" d="M700.99,723.94l-6.54-49.78h9.32l4.83,43.24h1.28l6.26-43.24h16.21l6.26,43.24h1.28l4.83-43.24h9.32l-6.54,49.78h-16.21l-6.4-44.23h-1.28l-6.4,44.23h-16.21Z"/>
    <path class="cls-1" d="M756.17,723.94l13.08-49.78h16.35l13.09,49.78h-9.67l-2.7-10.95h-17.78l-2.7,10.95h-9.67ZM770.75,704.31h13.37l-6.04-24.25h-1.28l-6.04,24.25Z"/>
    <path class="cls-1" d="M812.34,723.94v-17.14l-16.92-32.64h10.45l10.53,21.33h1.28l10.52-21.33h10.45l-16.93,32.64v17.14h-9.38Z"/>
  </g>
</svg>